<svg width="285" height="143" viewBox="0 0 285 143" xmlns="http://www.w3.org/2000/svg" xmlns:xlink="http://www.w3.org/1999/xlink">
    <title>
        ACE Telecom | net · voip · coud · wifi
    </title>
    <defs>
        <path id="a" d="M.005.911h17.438V26.94H.005z"/>
        <path id="c" d="M.06.977h227.945v99.586H.06z"/>
    </defs>
    <g fill="none" fill-rule="evenodd">
        <path d="M2.119 123.572v2.235h.056c1.071-1.657 2.481-2.487 4.232-2.487 1.453 0 2.612.467 3.478 1.397.865.933 1.298 2.222 1.298 3.869v7.836H9.815v-7.318c0-2.962-1.164-4.443-3.492-4.443-1.703 0-3.105.918-4.204 2.753v9.008H.751v-12.85h1.368M16.207 128.418h8.324c-.484-2.504-1.839-3.757-4.064-3.757-1.052 0-1.963.33-2.73.986-.768.655-1.279 1.58-1.53 2.771zm9.944 1.105H16.025c-.028.223-.042.447-.042.67 0 1.434.513 2.648 1.537 3.645 1.024.996 2.235 1.494 3.631 1.494 1.629 0 3.222-.638 4.777-1.913v1.55c-1.471 1.137-3.12 1.704-4.944 1.704-1.853 0-3.385-.642-4.595-1.928-1.211-1.285-1.816-2.918-1.816-4.902 0-1.88.559-3.438 1.676-4.671 1.117-1.234 2.523-1.852 4.218-1.852 1.592 0 2.938.558 4.036 1.671 1.099 1.111 1.648 2.623 1.648 4.532zM31.846 119.312v4.26h3.603v1.117h-3.603v7.641c0 1.229.1 2.036.3 2.423.201.387.738.579 1.614.579.67 0 1.452-.209 2.346-.628v1.313c-.903.437-1.788.656-2.654.656-.847 0-1.555-.242-2.123-.726-.567-.484-.852-1.155-.852-2.012v-9.246h-3.463v-1.117h3.463v-3.058l.936-1.202h.433M82.343 123.572l-5.532 13.101h-.825l-5.863-13.101h1.391l4.845 10.825 4.647-10.825h1.337M90.076 135.332c1.443 0 2.649-.504 3.617-1.514.968-1.011 1.453-2.279 1.453-3.807 0-1.518-.487-2.788-1.46-3.813-.973-1.023-2.177-1.537-3.61-1.537-1.452 0-2.665.509-3.638 1.524-.973 1.014-1.46 2.289-1.46 3.826 0 1.528.487 2.796 1.46 3.807.973 1.01 2.186 1.514 3.638 1.514zm0-12.012c1.862 0 3.415.639 4.658 1.915 1.242 1.275 1.864 2.867 1.864 4.776 0 1.9-.622 3.485-1.864 4.755-1.243 1.272-2.796 1.907-4.658 1.907-1.862 0-3.42-.635-4.672-1.907-1.252-1.27-1.878-2.855-1.878-4.755 0-1.909.626-3.501 1.878-4.776 1.252-1.276 2.81-1.915 4.672-1.915z" fill="#797B79"/>
        <g transform="translate(100 116)">
            <mask id="b" fill="#fff">
                <use xlink:href="#a"/>
            </mask>
            <path d="M.005 20.422h1.382V7.572H.005v12.85zm0-17.166h1.382V.911H.005v2.345zM7.233 9.611v8.758c1.164.643 2.347.963 3.547.963 1.537 0 2.78-.484 3.73-1.453.949-.967 1.424-2.239 1.424-3.812 0-1.565-.503-2.856-1.508-3.876-1.005-1.019-2.277-1.53-3.812-1.53-1.1 0-2.227.318-3.381.95zm0-2.039v.726c1.294-.651 2.584-.978 3.869-.978 1.824 0 3.338.63 4.539 1.887 1.201 1.257 1.802 2.839 1.802 4.748 0 1.881-.619 3.471-1.858 4.77-1.238 1.298-2.751 1.948-4.539 1.948-1.238 0-2.509-.32-3.813-.963V27H5.865V7.572h1.368z" fill="#797B79" mask="url(#b)"/>
        </g>
        <path d="M161.4 123.95v1.522c-1.229-.54-2.342-.811-3.338-.811-1.434 0-2.6.499-3.498 1.496-.899.995-1.349 2.289-1.349 3.882 0 1.62.45 2.908 1.349 3.862.898.955 2.102 1.431 3.61 1.431 1.099 0 2.253-.247 3.463-.739v1.424c-1.284.437-2.476.656-3.575.656-1.881 0-3.401-.595-4.56-1.788-1.159-1.191-1.739-2.755-1.739-4.692 0-2.02.584-3.671 1.753-4.951 1.168-1.28 2.661-1.922 4.476-1.922.996 0 2.132.211 3.408.63M165.041 136.422h1.382v-19.511h-1.382zM176.475 135.332c1.444 0 2.649-.504 3.618-1.514.968-1.011 1.452-2.279 1.452-3.807 0-1.518-.486-2.788-1.459-3.813-.973-1.023-2.177-1.537-3.611-1.537-1.452 0-2.665.509-3.637 1.524-.974 1.014-1.46 2.289-1.46 3.826 0 1.528.486 2.796 1.46 3.807.972 1.01 2.185 1.514 3.637 1.514zm0-12.012c1.863 0 3.415.639 4.659 1.915 1.242 1.275 1.864 2.867 1.864 4.776 0 1.9-.622 3.485-1.864 4.755-1.244 1.272-2.796 1.907-4.659 1.907-1.862 0-3.419-.635-4.671-1.907-1.253-1.27-1.878-2.855-1.878-4.755 0-1.909.625-3.501 1.878-4.776 1.252-1.276 2.809-1.915 4.671-1.915zM195.495 136.422v-2.124h-.056c-.597.858-1.209 1.468-1.836 1.831-.63.362-1.428.544-2.396.544-1.377 0-2.518-.447-3.422-1.341-.903-.894-1.354-2.16-1.354-3.798v-7.962h1.368v7.934c0 1.191.326 2.128.978 2.807.651.679 1.498 1.019 2.542 1.019.894 0 1.654-.204 2.284-.614.627-.409 1.258-1.118 1.892-2.124v-9.022h1.369v12.85h-1.369M210.574 134.159v-8.296c-1.229-.8-2.476-1.202-3.742-1.202-1.481 0-2.701.492-3.66 1.474-.959.984-1.438 2.238-1.438 3.764 0 1.556.512 2.85 1.536 3.883 1.024 1.034 2.305 1.55 3.841 1.55 1.191 0 2.345-.391 3.463-1.173zm1.384-17.248v19.511h-1.384v-1.006c-1.173.838-2.44 1.257-3.798 1.257-1.826 0-3.364-.644-4.617-1.935-1.251-1.289-1.878-2.875-1.878-4.755 0-1.909.616-3.495 1.85-4.763 1.234-1.266 2.782-1.9 4.645-1.9 1.182 0 2.448.346 3.798 1.034v-7.443h1.384zM267.887 123.572l-5.554 13.101h-.656l-3.951-10.432-3.987 10.432h-.618l-5.499-13.101h1.348l4.385 10.475 4.035-10.475h.745l3.907 10.475 4.486-10.475h1.359M270.298 136.422h1.384v-12.85h-1.384v12.85zm0-17.166h1.384v-2.345h-1.384v2.345zM283.605 117.204v1.285c-.922-.327-1.695-.488-2.318-.488-2.077 0-3.115 1.326-3.115 3.98v1.591h2.487v1.117h-2.487v11.733h-1.369v-11.733h-2.374v-1.117h2.374v-2.109c0-1.48.431-2.651 1.293-3.512.86-.861 1.916-1.291 3.163-1.291.679 0 1.461.18 2.346.544" fill="#797B79"/>
        <path d="M282.832 136.422h1.384v-12.85h-1.384v12.85zm1.384-18.951v1.785h-1.384v-2.345l1.384.56z" fill="#797B79"/>
        <path d="M55.908 128.568c0 .62-.211 1.146-.635 1.577-.424.431-.947.647-1.567.647-.614 0-1.141-.218-1.582-.652-.442-.435-.662-.958-.662-1.572 0-.621.22-1.147.662-1.577.441-.431.968-.646 1.582-.646.386 0 .753.1 1.101.299.348.2.619.469.812.807.193.338.289.71.289 1.117M136.727 128.568c0 .62-.211 1.146-.636 1.577-.424.431-.946.647-1.566.647-.614 0-1.142-.218-1.583-.652-.441-.435-.661-.958-.661-1.572 0-.621.22-1.147.661-1.577.441-.431.969-.646 1.583-.646.386 0 .753.1 1.101.299.348.2.619.469.812.807.193.338.289.71.289 1.117M231.86 128.568c0 .62-.211 1.146-.635 1.577-.424.431-.947.647-1.567.647-.614 0-1.141-.218-1.582-.652-.442-.435-.662-.958-.662-1.572 0-.621.22-1.147.662-1.577.441-.431.968-.646 1.582-.646.386 0 .753.1 1.101.299.348.2.619.469.812.807.193.338.289.71.289 1.117" fill="#f47422"/>
        <path d="M125.377 100.934c-1.774.108-3.697.081-5.765-.081-2.072-.161-3.107-1.477-3.107-3.953V74.277h2.904c.699 0 1.318.268 1.856.806.535.537.807 1.182.807 1.935v2.544h3.305v1.131c0 .805-.269 1.464-.808 1.975-.537.512-1.182.766-1.934.766h-.563V95.37c0 .914.536 1.371 1.612 1.371h1.693v4.193M137.297 88.032h8.225c-.109-1.452-.484-2.528-1.128-3.228-.7-.752-1.694-1.129-2.986-1.129-1.181 0-2.149.377-2.904 1.129-.752.755-1.155 1.83-1.207 3.228m9.677 6.289h4.033c-.595 2.257-1.724 3.979-3.389 5.161-1.666 1.239-3.764 1.856-6.288 1.856-3.066 0-5.46-.995-7.178-2.985-1.724-1.936-2.581-4.704-2.581-8.307 0-3.44.833-6.128 2.498-8.063 1.721-1.989 4.114-2.985 7.179-2.985 3.226 0 5.726.968 7.5 2.903 1.72 1.992 2.581 4.759 2.581 8.307v.887c0 .27-.029.458-.081.565h-13.951c.052 1.667.455 2.904 1.207 3.71.7.859 1.749 1.29 3.149 1.29.911 0 1.691-.188 2.336-.565.162-.053.309-.148.443-.282l.446-.443c.052-.162.252-.376.603-.647.349-.267.848-.402 1.493-.402M158.652 74.361h2.903c.752 0 1.399.257 1.934.766.538.513.808 1.144.808 1.898v23.909h-5.645V74.361M176.7 88.032h8.225c-.108-1.452-.483-2.528-1.13-3.228-.699-.752-1.692-1.129-2.984-1.129-1.181 0-2.149.377-2.902 1.129-.755.755-1.157 1.83-1.209 3.228m9.678 6.289h4.031c-.592 2.257-1.722 3.979-3.387 5.161-1.669 1.239-3.764 1.856-6.29 1.856-3.065 0-5.458-.995-7.178-2.985-1.721-1.936-2.58-4.704-2.58-8.307 0-3.44.832-6.128 2.501-8.063 1.719-1.989 4.113-2.985 7.176-2.985 3.227 0 5.727.968 7.499 2.903 1.722 1.992 2.581 4.759 2.581 8.307v.887c0 .27-.028.458-.079.565H176.7c.052 1.667.454 2.904 1.209 3.71.697.859 1.746 1.29 3.144 1.29.916 0 1.694-.188 2.34-.565.161-.053.309-.148.443-.282l.444-.443c.053-.162.253-.376.607-.647.346-.267.844-.402 1.491-.402M212.733 94.32h4.032c-.592 2.259-1.722 3.981-3.386 5.162-1.669 1.239-3.765 1.856-6.291 1.856-3.065 0-5.458-.995-7.178-2.984-1.723-1.937-2.582-4.704-2.582-8.309 0-3.438.835-6.126 2.5-8.063 1.721-1.987 4.114-2.985 7.179-2.985 3.225 0 5.726.968 7.502 2.905.965 1.183 1.664 2.554 2.093 4.113h-5.642c-.271-.536-.541-.94-.809-1.212-.698-.75-1.692-1.128-2.984-1.128-1.182 0-2.149.378-2.902 1.128-.968 1.076-1.453 2.853-1.453 5.325 0 2.474.485 4.219 1.453 5.242.698.86 1.746 1.29 3.144 1.29.916 0 1.695-.188 2.338-.564.163-.053.311-.148.447-.283.131-.134.28-.282.442-.443.107-.161.324-.377.645-.646.322-.269.806-.404 1.452-.404M230.377 84.804c-1.128 1.238-1.64 3.079-1.532 5.524.106 2.448.565 4.153 1.372 5.121.321.434.887.794 1.691 1.089.807.296 1.628.324 2.462.081.832-.241 1.573-.847 2.216-1.813.647-.969.993-2.528 1.049-4.679 0-1.935-.31-3.387-.927-4.356-.617-.967-1.33-1.584-2.137-1.853-.807-.267-1.613-.282-2.42-.041-.808.241-1.399.554-1.774.927m-3.87 14.194c-1.129-.967-1.935-2.27-2.42-3.909-.485-1.641-.726-3.35-.726-5.123 0-1.453.204-2.902.605-4.354.404-1.453 1.035-2.662 1.895-3.629 1.398-1.613 3.198-2.568 5.404-2.864 2.205-.295 4.192-.121 5.968.525 2.044.806 3.548 2.204 4.515 4.193.914 1.775 1.371 3.843 1.371 6.209 0 1.723-.188 3.201-.565 4.435-.376 1.238-.861 2.287-1.451 3.146-1.291 1.775-2.932 2.878-4.918 3.306-1.776.486-3.564.526-5.364.121-1.802-.402-3.24-1.089-4.314-2.056M269.693 100.934h-5.565v-13.71c0-1.291-.391-2.229-1.167-2.823-.783-.591-1.654-.886-2.621-.886-.97 0-1.83.295-2.582.886-.755.594-1.13 1.532-1.13 2.823v13.71h-5.644V88.353c0-3.654.953-6.1 2.864-7.339 1.906-1.235 4.016-1.906 6.33-2.017 1.235 0 2.445.135 3.629.404 1.181.269 2.256.806 3.226 1.613.806-.698 1.759-1.196 2.863-1.492 1.102-.295 2.244-.469 3.427-.525 2.367 0 4.542.62 6.531 1.856 1.99 1.238 2.985 3.738 2.985 7.5v12.581h-2.823c-.806 0-1.465-.255-1.976-.766-.511-.51-.765-1.17-.765-1.976V87.224c0-1.291-.391-2.229-1.17-2.823-.78-.591-1.652-.886-2.621-.886-.967 0-1.841.295-2.621.886-.779.594-1.17 1.532-1.17 2.823v13.71" fill="#797B79"/>
        <path d="M154.135 34.057c-2.228 1.122-5.325 2.158-9.291 3.118l-5.484 1.197c-2.858.805-4.924 1.838-6.196 3.118-1.111 1.761-1.668 3.515-1.668 5.274 0 2.394.716 4.31 2.149 5.748 1.423 1.287 3.485 1.922 6.192 1.922 4.445 0 7.941-1.278 10.486-3.836 2.54-2.558 3.812-6.073 3.812-10.547v-5.994zm3.816 29.485c-3.339 1.759-6.875 2.835-10.611 3.237-3.732.394-7.03.597-9.887.597-5.719 0-10.723-1.559-15.012-4.673-4.291-3.115-6.433-8.269-6.433-15.46 0-6.715 1.942-11.508 5.841-14.383 3.886-2.878 8.851-4.788 14.888-5.753.975-.156 5.244-.8 6.673-.961 6.99-.956 10.49-3.034 10.49-6.234 0-2.392-1.237-3.951-3.696-4.674-2.465-.714-4.727-1.076-6.794-1.076-2.224 0-4.211.32-5.957.958-1.749.645-3.017 1.838-3.808 3.598h-15.97c.631-4.953 2.858-9.028 6.671-12.224 4.291-3.679 10.405-5.517 18.349-5.517 8.896 0 15.569 1.521 20.02 4.558 4.603 3.195 6.911 7.668 6.911 13.421V40.77c0 6.389-1.155 11.384-3.458 14.983-2.304 3.597-5.043 6.194-8.217 7.789zM245.337 34.296c2.228-1.122 5.325-2.158 9.291-3.119l5.485-1.197c2.857-.804 4.924-1.838 6.195-3.117 1.111-1.761 1.668-3.516 1.668-5.274 0-2.394-.716-4.311-2.15-5.749-1.422-1.286-3.485-1.921-6.191-1.921-4.445 0-7.941 1.278-10.486 3.836-2.54 2.557-3.812 6.072-3.812 10.547v5.994zm-3.816-29.485c3.339-1.76 6.875-2.836 10.611-3.237 3.732-.395 7.03-.597 9.887-.597 5.719 0 10.723 1.559 15.012 4.673 4.292 3.115 6.434 8.269 6.434 15.46 0 6.715-1.942 11.507-5.842 14.383-3.887 2.878-8.851 4.787-14.887 5.753-.976.156-5.244.8-6.674.96-6.99.956-10.49 3.034-10.49 6.234 0 2.393 1.237 3.952 3.696 4.675 2.465.714 4.727 1.076 6.794 1.076 2.223 0 4.211-.321 5.957-.958 1.749-.645 3.018-1.839 3.807-3.598h15.971c-.631 4.953-2.858 9.028-6.67 12.224-4.292 3.679-10.405 5.517-18.35 5.517-8.896 0-15.569-1.521-20.02-4.559-4.603-3.195-6.911-7.668-6.911-13.421V27.583c0-6.39 1.155-11.384 3.458-14.983 2.304-3.597 5.043-6.194 8.217-7.789z" fill="#f47422"/>
        <mask id="d" fill="#fff">
            <use xlink:href="#c"/>
        </mask>
        <path d="M216.092 46.524h11.913c-1.748 6.707-5.082 11.827-10.006 15.339-4.929 3.679-11.123 5.512-18.585 5.512-9.055 0-16.127-2.953-21.212-8.865-5.089-5.758-7.624-13.985-7.624-24.69 0-10.225 2.458-18.222 7.387-23.97 5.081-5.916 12.151-8.873 21.21-8.873 9.524 0 16.917 2.877 22.157 8.631 2.865 3.515 4.925 7.595 6.198 12.225h-16.678c-.803-1.599-1.594-2.793-2.388-3.595-2.064-2.237-5.003-3.355-8.811-3.355-3.5 0-6.359 1.118-8.581 3.355-2.859 3.194-4.288 8.469-4.288 15.819 0 7.35 1.429 12.55 4.288 15.581 2.059 2.561 5.16 3.836 9.291 3.836 2.7 0 5.003-.555 6.914-1.678.475-.157.911-.436 1.307-.84.398-.394.837-.838 1.314-1.318.318-.48.954-1.117 1.906-1.918.951-.796 2.382-1.196 4.288-1.196" fill="#f47422" mask="url(#d)"/>
        <path d="M0 65.943C.002 52.89 1.92 46.595 5.176 38.665c.844-2.055 1.952-4.195 2.936-6.62.73-1.804 1.654-.949 1.468.07-1.433 7.884-1.177 25.394 16.247 35.802 24.614 14.702 11.863 32.645.404 32.646C13.595 100.564-.002 89.776 0 65.943" fill="#797B79" mask="url(#d)"/>
        <path d="M44.963.718c-12.201 0-31.767 12.859-31.767 33.118 0 28.693 26.038 21.389 39.766 24.897 32.5 8.307 23.91 31.661 20.391 40.626-.667 1.702.829 1.48 1.592.419 6.584-9.134 14.637-19.212 14.637-34.624C89.582 17.23 57.051.718 44.963.718" fill="#f47422"/>
    </g>
</svg>
